M48
;DRILL file {KiCad 4.0.7} date 01/20/18 15:01:25
;FORMAT={-:-/ absolute / inch / decimal}
FMAT,2
INCH,TZ
T1C0.020
T2C0.040
T3C0.047
T4C0.051
T5C0.059
T6C0.067
%
G90
G05
M72
T1
X4.6564Y-1.7005
X4.7496Y-1.5496
X4.848Y-2.252
X4.85Y-1.6
X4.95Y-1.6
X4.95Y-2.25
X5.1Y-2.25
X5.3Y-1.55
X5.3Y-2.1
X5.3Y-2.2
X5.3064Y-2.3704
X5.3295Y-1.8705
X5.35Y-1.7
X5.35Y-1.75
X5.35Y-2.
X5.35Y-2.2
X5.35Y-2.25
X5.5Y-1.95
X5.65Y-2.3
X5.775Y-1.875
X5.85Y-1.95
X6.1Y-1.6
X6.6Y-1.8
X6.725Y-1.725
T2
X3.15Y-1.55
X3.6Y-1.5
X3.8Y-2.3
X4.05Y-1.65
X4.25Y-2.05
X4.35Y-1.798
X4.4Y-1.65
X4.45Y-1.952
X4.5Y-1.45
X4.7Y-2.1
X5.75Y-1.5
X6.Y-1.952
X6.3Y-2.2
X6.4Y-1.9
X6.55Y-1.6
T3
X6.95Y-1.65
X6.95Y-1.75
X6.95Y-1.85
X6.95Y-1.95
X6.95Y-2.05
X6.95Y-2.15
T4
X7.25Y-1.8031
X7.25Y-2.
X7.6437Y-1.9016
T5
X2.7Y-1.9
X3.15Y-1.9
X8.25Y-1.9
T6
X2.6Y-1.8
X2.6Y-2.
X2.8Y-1.8
X2.8Y-2.
X3.05Y-1.8
X3.05Y-2.
X3.25Y-1.8
X3.25Y-2.
X8.15Y-1.8
X8.15Y-2.
X8.35Y-1.8
X8.35Y-2.
T0
M30
